<svg id="Group_5" data-name="Group 5" xmlns="http://www.w3.org/2000/svg" width="46.036" height="35.864" viewBox="0 0 46.036 35.864">
  <path id="Path_1" data-name="Path 1" d="M2.59,6.4H9.65V0h2.47V16.367H9.65V8.723H2.59v7.643H.12V0H2.59Z" transform="translate(-0.092)"/>
  <path id="Path_2" data-name="Path 2" d="M64.05,32.972a8.02,8.02,0,0,1,2.5-5.949,8.828,8.828,0,0,1,12.231.016,8.225,8.225,0,0,1,2.486,6.066,8.176,8.176,0,0,1-2.5,6.083,8.555,8.555,0,0,1-6.181,2.437A8.206,8.206,0,0,1,66.5,39.14,8.36,8.36,0,0,1,64.05,32.972Zm3.81.066a5.442,5.442,0,0,0,1.293,3.829,5.023,5.023,0,0,0,6.992.016,5.313,5.313,0,0,0,1.31-3.763,5.3,5.3,0,0,0-1.31-3.763,4.962,4.962,0,0,0-6.959,0A5.2,5.2,0,0,0,67.86,33.038Z" transform="translate(-49.042 -18.813)"/>
  <path id="Path_3" data-name="Path 3" d="M98.883.19l3.876,8.449,4.18-8.417,4.211,8.417L114.978.19h3.829L111.055,16.1l-4.119-9.53-4.164,9.53L95.04.19Z" transform="translate(-72.771 -0.145)"/>
  <path id="Path_4" data-name="Path 4" d="M12.027,73.83V87.793H9.553V73.83H0V71.6H9.553V67.82h2.474V71.6h1.764V73.83Z" transform="translate(0 -51.929)"/>
  <path id="Path_5" data-name="Path 5" d="M64.34,88.115a5.133,5.133,0,0,1,1.6-3.805,5.647,5.647,0,0,1,7.824.009,5.527,5.527,0,0,1-.009,7.77A5.472,5.472,0,0,1,69.8,93.647a5.241,5.241,0,0,1-3.89-1.591A5.324,5.324,0,0,1,64.34,88.115Zm2.437.042a3.485,3.485,0,0,0,.827,2.449,3.214,3.214,0,0,0,4.475.009,3.88,3.88,0,0,0,0-4.813,3.177,3.177,0,0,0-4.454,0A3.332,3.332,0,0,0,66.777,88.157Z" transform="translate(-49.264 -63.353)"/>
</svg>
